# xmcd CD database file
#
# Track frame offsets:
#	150
#	27712
#	61390
#	84715
#	112992
#	136302
#	157930
#	177472
#	206000
#	229775
#	243377
#	264282
#	287217
#
# Disc length: 4144 seconds
#
# Revision: 0
# Processed by: cddbd v1.5.1PL0 Copyright (c) Steve Scherf et al.
# Submitted via: CDex 1.51
#
DISCID=b8102e0d
DTITLE=Pamela Knowles - Boite De Jazz
DYEAR=1900
DGENRE=Jazz
TTITLE0=Boites de Jazz
TTITLE1=estate
TTITLE2=song for my father
TTITLE3=you don't know what love is
TTITLE4=I've never waited for you
TTITLE5=I remember sky
TTITLE6=Comes Love
TTITLE7=I didn't know what time it was
TTITLE8=If you neve come to me
TTITLE9=Nothing like you
TTITLE10=Where do you start
TTITLE11=Inner clock
TTITLE12=fair weather
EXTD=
EXTT0=
EXTT1=
EXTT2=
EXTT3=
EXTT4=
EXTT5=
EXTT6=
EXTT7=
EXTT8=
EXTT9=
EXTT10=
EXTT11=
EXTT12=
PLAYORDER=
